<svg xmlns="http://www.w3.org/2000/svg" xmlns:xlink="http://www.w3.org/1999/xlink" version="1.1" x="0px" y="0px" viewBox="0 0 100 100" style="enable-background:new 0 0 100 100;" xml:space="preserve"><path d="M16.6,24.4c-0.3,0.8-0.2,1.6,0.4,2.2l23.7,24.4v23.6c0,0.8,0.4,1.5,1.1,1.8c0.3,0.1,0.6,0.2,0.9,0.2c0.4,0,0.9-0.1,1.2-0.4  l14.4-10.7c0.5-0.4,0.8-1,0.8-1.7V51.1L83,26.7c0.6-0.6,0.7-1.5,0.4-2.2c-0.3-0.8-1.1-1.3-1.9-1.3h-63  C17.7,23.2,16.9,23.7,16.6,24.4z M76.6,27.3L55.7,48.9c-0.4,0.4-0.6,0.9-0.6,1.4V63l-10.3,7.7V50.3c0-0.5-0.2-1.1-0.6-1.4L23.4,27.3  H76.6z"></path></svg>