<svg xmlns="http://www.w3.org/2000/svg" width="43.948" height="43.948" viewBox="0 0 43.948 43.948"><g transform="translate(0 0)"><g transform="translate(0 0)"><path d="M755.909-46.654a3,3,0,0,0-3.01-2.288H737.728V-62.307H729.54l-.241,1.2s-1.084,5.177-2.89,8.067a21.567,21.567,0,0,1-5.177,5.3h-8.669v29.379h33.232c6.5,0,10.716-17.1,10.716-24.322A12.541,12.541,0,0,0,755.909-46.654Zm-35.64,25.406h-4.7V-44.607h4.7Zm30.824-8.188c-1.926,5.659-4.094,8.188-5.177,8.188H723.4v-24.2a25.335,25.335,0,0,0,5.78-6.02,31.026,31.026,0,0,0,3.01-7.826h2.649v13.365H752.9C753.862-45.209,753.862-37.865,751.093-29.436Z" transform="translate(-712.563 62.307)" fill="#0c900c"/></g></g></svg>