<svg xmlns="http://www.w3.org/2000/svg" width="55.418" height="52.599" viewBox="0 0 55.418 52.599"><g transform="matrix(-0.017, 1, -1, -0.017, 72.597, -17.011)"><g transform="translate(18.26 16.863)"><g transform="translate(0 0)"><path d="M8.7,3.812a1.435,1.435,0,1,1,2.029-2.029L36.557,27.611a1.435,1.435,0,0,1,0,2.029L10.729,55.468A1.435,1.435,0,1,1,8.7,53.438L33.513,28.625Z" transform="translate(14.678 -1.363)"/><path d="M27.993,28.625,3.18,3.812A1.435,1.435,0,0,1,5.209,1.783L31.037,27.611a1.435,1.435,0,0,1,0,2.029L5.209,55.468A1.435,1.435,0,0,1,3.18,53.438Z" transform="translate(-2.76 -1.363)"/></g></g></g></svg>