<svg xmlns="http://www.w3.org/2000/svg" xmlns:xlink="http://www.w3.org/1999/xlink" width="375" height="112" viewBox="0 0 375 112"><defs><clipPath id="a"><rect width="185" height="38" fill="none"/></clipPath><pattern id="b" preserveAspectRatio="xMidYMid slice" width="100%" height="100%" viewBox="0 0 600 600"><image width="600" height="600" xlink:href="footer-image.jpg"/></pattern></defs><g transform="translate(0 -700)"><rect width="375" height="105" transform="translate(0 707)" fill="#ffb600"/><rect width="375" height="14" transform="translate(0 700)" fill="#4e4747"/><g transform="translate(95 741)" clip-path="url(#a)"><g transform="translate(-99 -741)"><text transform="translate(138.505 770)" font-size="30" font-family="Silom"><tspan x="0" y="0">EVENTIFY</tspan></text></g><g transform="translate(-68 -453)"><g transform="translate(68 457.856)"><path d="M20.028,28.565H7a7.008,7.008,0,0,1-7-7V7A7.008,7.008,0,0,1,7,0H28.952a7.008,7.008,0,0,1,7,7v3.517A12.067,12.067,0,1,0,20.025,28.564Z" fill="none"/><path d="M12.271,24.565A16.1,16.1,0,0,1,21.454,4H7A3,3,0,0,0,4,7V21.565a3,3,0,0,0,3,3h5.271m7.757,4H7a7.008,7.008,0,0,1-7-7V7A7.008,7.008,0,0,1,7,0H28.952a7.008,7.008,0,0,1,7,7v3.517a12.068,12.068,0,0,0-19.39,13.889,12.179,12.179,0,0,0,3.463,4.158Z" fill="#fff"/></g><g transform="translate(68.492 472.631)"><line x2="4.432" transform="translate(2.462)" fill="none" stroke="#fff" stroke-width="4"/><path d="M9,0" transform="translate(-9)" fill="none" stroke="#fff" stroke-width="4"/><line x2="4.432" transform="translate(9.357)" fill="none" stroke="#fff" stroke-width="4"/></g><g transform="translate(68.492 479.525)"><line x2="4.432" transform="translate(2.462)" fill="none" stroke="#fff" stroke-width="4"/><path d="M9,0" transform="translate(-9)" fill="none" stroke="#fff" stroke-width="4"/><line x2="4.432" transform="translate(9.357)" fill="none" stroke="#fff" stroke-width="4"/></g><g transform="translate(74.402 465.736)"><line x2="6.895" fill="none" stroke="#fff" stroke-width="4"/><path d="M9,0" transform="translate(-9)" fill="none" stroke="#fff" stroke-width="4"/></g><path d="M10.758,0A10.758,10.758,0,1,1,0,10.758,10.758,10.758,0,0,1,10.758,0Z" transform="translate(84.745 466.172)" fill="url(#b)"/><line y2="5.325" transform="translate(75.988 456)" fill="none" stroke="#fff" stroke-width="4"/><line y2="5.325" transform="translate(95.94 456)" fill="none" stroke="#fff" stroke-width="4"/></g></g></g></svg>