<svg xmlns="http://www.w3.org/2000/svg" width="22.875" height="30.667" viewBox="0 0 22.875 30.667"><g transform="translate(-12.267 -7.667)"><g transform="translate(-7 -7)"><g transform="translate(7 7)"><g transform="translate(12.267 7.667)"><path d="M11.421,7.6a3.833,3.833,0,1,1-3.832,3.83A3.837,3.837,0,0,1,11.421,7.6Zm.015,19.08c2.55-2.321,8.372-8.375,8.372-15.241a8.332,8.332,0,0,0-8.335-8.375h-.064a8.34,8.34,0,0,0-8.341,8.366C3.067,18.321,8.869,24.353,11.436,26.684Zm8.1-23.342a11.476,11.476,0,0,1,3.337,8.1c0,10.243-10.293,18.334-10.73,18.673l-.711.552-.708-.558C9.625,29.246,0,21.389,0,11.444A11.407,11.407,0,0,1,11.408,0h.064A11.484,11.484,0,0,1,19.538,3.342Z" fill="#ffb600" fill-rule="evenodd"/></g></g></g></g></svg>