<svg xmlns="http://www.w3.org/2000/svg" xmlns:xlink="http://www.w3.org/1999/xlink" viewBox="0 0 88 88" version="1.1" x="0px" y="0px"><title>search2</title><desc>Created with Sketch.</desc><g stroke="none" stroke-width="1" fill="none" fill-rule="evenodd"><g fill="#000000"><path d="M56.7056589,59.3075876 C50.6857741,64.7121539 42.7268458,68 34,68 C15.2223185,68 0,52.7776815 0,34 C0,15.2223185 15.2223185,0 34,0 C52.7776815,0 68,15.2223185 68,34 C68,42.7273864 64.7117466,50.6867602 59.3065832,56.7067777 C59.5510366,56.8040978 59.7799509,56.9515238 59.9774114,57.1489843 L86.8510157,84.0225886 C87.6310849,84.8026578 87.6357363,86.0627485 86.8492424,86.8492424 C86.0681938,87.630291 84.8009942,87.6294214 84.0225886,86.8510157 L57.1489843,59.9774114 C56.9513518,59.7797789 56.8034914,59.551335 56.7056589,59.3075876 Z M34,64 C50.5685425,64 64,50.5685425 64,34 C64,17.4314575 50.5685425,4 34,4 C17.4314575,4 4,17.4314575 4,34 C4,50.5685425 17.4314575,64 34,64 Z M49,24 C49,25.1045695 48.1021596,26 47.008383,26 L20.991617,26 C19.8916773,26 19,25.1122704 19,24 C19,22.8954305 19.8978404,22 20.991617,22 L47.008383,22 C48.1083227,22 49,22.8877296 49,24 Z M43,34 C43,35.1045695 42.1029738,36 40.9950534,36 L21.0049466,36 C19.8976452,36 19,35.1122704 19,34 C19,32.8954305 19.8970262,32 21.0049466,32 L40.9950534,32 C42.1023548,32 43,32.8877296 43,34 Z M39,44 C39,45.1045695 38.1017876,46 37.0092049,46 L20.9907951,46 C19.8913093,46 19,45.1122704 19,44 C19,42.8954305 19.8982124,42 20.9907951,42 L37.0092049,42 C38.1086907,42 39,42.8877296 39,44 Z"></path></g></g></svg>